<mxfile host="Electron" modified="2023-07-17T13:17:47.611Z" agent="Mozilla/5.0 (Windows NT 10.0; Win64; x64) AppleWebKit/537.36 (KHTML, like Gecko) draw.io/21.6.1 Chrome/112.0.5615.204 Electron/24.6.1 Safari/537.36" etag="LEw7nU-rcL_4OPUTMQdy" version="21.6.1" type="device">
  <diagram name="第 1 页" id="bB537N-INVUiUfxHYbDp">
    <mxGraphModel dx="864" dy="516" grid="1" gridSize="10" guides="1" tooltips="1" connect="1" arrows="1" fold="1" page="1" pageScale="1" pageWidth="827" pageHeight="1169" math="0" shadow="0">
      <root>
        <mxCell id="0" />
        <mxCell id="1" parent="0" />
        <mxCell id="KkM-B34S3chetilRFBdd-214" value="Conv2d" style="rounded=1;whiteSpace=wrap;html=1;fillColor=#e51400;fontColor=#ffffff;strokeColor=#B20000;" parent="1" vertex="1">
          <mxGeometry x="555" y="813" width="70" height="30" as="geometry" />
        </mxCell>
        <mxCell id="KkM-B34S3chetilRFBdd-215" value="BatchNorm" style="rounded=1;whiteSpace=wrap;html=1;fillColor=#647687;fontColor=#ffffff;strokeColor=#314354;" parent="1" vertex="1">
          <mxGeometry x="555" y="843" width="70" height="30" as="geometry" />
        </mxCell>
        <mxCell id="GMvX-iJyJQHZilnjty4t-12" style="edgeStyle=orthogonalEdgeStyle;rounded=0;orthogonalLoop=1;jettySize=auto;html=1;exitX=0.5;exitY=1;exitDx=0;exitDy=0;entryX=0.5;entryY=0;entryDx=0;entryDy=0;" edge="1" parent="1" source="KkM-B34S3chetilRFBdd-216" target="GMvX-iJyJQHZilnjty4t-5">
          <mxGeometry relative="1" as="geometry" />
        </mxCell>
        <mxCell id="KkM-B34S3chetilRFBdd-216" value="SiLU" style="rounded=1;whiteSpace=wrap;html=1;fillColor=#a0522d;fontColor=#ffffff;strokeColor=#6D1F00;" parent="1" vertex="1">
          <mxGeometry x="555" y="873" width="70" height="30" as="geometry" />
        </mxCell>
        <mxCell id="KkM-B34S3chetilRFBdd-238" value="" style="endArrow=classic;html=1;rounded=0;entryX=0.5;entryY=0;entryDx=0;entryDy=0;" parent="1" target="KkM-B34S3chetilRFBdd-214" edge="1">
          <mxGeometry width="50" height="50" relative="1" as="geometry">
            <mxPoint x="590" y="780" as="sourcePoint" />
            <mxPoint x="595" y="703" as="targetPoint" />
          </mxGeometry>
        </mxCell>
        <mxCell id="GMvX-iJyJQHZilnjty4t-5" value="Conv2d" style="rounded=1;whiteSpace=wrap;html=1;fillColor=#e51400;fontColor=#ffffff;strokeColor=#B20000;" vertex="1" parent="1">
          <mxGeometry x="555" y="932" width="70" height="30" as="geometry" />
        </mxCell>
        <mxCell id="GMvX-iJyJQHZilnjty4t-6" value="BatchNorm" style="rounded=1;whiteSpace=wrap;html=1;fillColor=#647687;fontColor=#ffffff;strokeColor=#314354;" vertex="1" parent="1">
          <mxGeometry x="555" y="962" width="70" height="30" as="geometry" />
        </mxCell>
        <mxCell id="GMvX-iJyJQHZilnjty4t-14" style="edgeStyle=orthogonalEdgeStyle;rounded=0;orthogonalLoop=1;jettySize=auto;html=1;exitX=0.5;exitY=1;exitDx=0;exitDy=0;" edge="1" parent="1" source="GMvX-iJyJQHZilnjty4t-7">
          <mxGeometry relative="1" as="geometry">
            <mxPoint x="590" y="1062" as="targetPoint" />
          </mxGeometry>
        </mxCell>
        <mxCell id="GMvX-iJyJQHZilnjty4t-7" value="SiLU" style="rounded=1;whiteSpace=wrap;html=1;fillColor=#a0522d;fontColor=#ffffff;strokeColor=#6D1F00;" vertex="1" parent="1">
          <mxGeometry x="555" y="992" width="70" height="30" as="geometry" />
        </mxCell>
        <mxCell id="GMvX-iJyJQHZilnjty4t-15" value="" style="endArrow=none;html=1;rounded=0;dashed=1;" edge="1" parent="1">
          <mxGeometry width="50" height="50" relative="1" as="geometry">
            <mxPoint x="590" y="792" as="sourcePoint" />
            <mxPoint x="590" y="1042" as="targetPoint" />
            <Array as="points">
              <mxPoint x="540" y="792" />
              <mxPoint x="480" y="792" />
              <mxPoint x="480" y="812" />
              <mxPoint x="480" y="1042" />
              <mxPoint x="540" y="1042" />
            </Array>
          </mxGeometry>
        </mxCell>
        <mxCell id="GMvX-iJyJQHZilnjty4t-16" value="PConv2d" style="rounded=1;whiteSpace=wrap;html=1;fillColor=#60a917;fontColor=#ffffff;strokeColor=#2D7600;" vertex="1" parent="1">
          <mxGeometry x="729.5" y="790" width="70" height="30" as="geometry" />
        </mxCell>
        <mxCell id="GMvX-iJyJQHZilnjty4t-17" value="PWConv2d" style="rounded=1;whiteSpace=wrap;html=1;fillColor=#d80073;fontColor=#ffffff;strokeColor=#A50040;" vertex="1" parent="1">
          <mxGeometry x="707" y="820" width="120" height="30" as="geometry" />
        </mxCell>
        <mxCell id="GMvX-iJyJQHZilnjty4t-18" value="BatchNorm" style="rounded=1;whiteSpace=wrap;html=1;fillColor=#647687;fontColor=#ffffff;strokeColor=#314354;" vertex="1" parent="1">
          <mxGeometry x="729.5" y="850" width="70" height="30" as="geometry" />
        </mxCell>
        <mxCell id="GMvX-iJyJQHZilnjty4t-25" style="edgeStyle=orthogonalEdgeStyle;rounded=0;orthogonalLoop=1;jettySize=auto;html=1;exitX=0.5;exitY=1;exitDx=0;exitDy=0;entryX=0.5;entryY=0;entryDx=0;entryDy=0;" edge="1" parent="1" source="GMvX-iJyJQHZilnjty4t-19" target="GMvX-iJyJQHZilnjty4t-20">
          <mxGeometry relative="1" as="geometry" />
        </mxCell>
        <mxCell id="GMvX-iJyJQHZilnjty4t-19" value="ReLU" style="rounded=1;whiteSpace=wrap;html=1;fillColor=#a0522d;fontColor=#ffffff;strokeColor=#6D1F00;" vertex="1" parent="1">
          <mxGeometry x="729.5" y="880" width="70" height="30" as="geometry" />
        </mxCell>
        <mxCell id="GMvX-iJyJQHZilnjty4t-20" value="PConv2d" style="rounded=1;whiteSpace=wrap;html=1;fillColor=#60a917;fontColor=#ffffff;strokeColor=#2D7600;" vertex="1" parent="1">
          <mxGeometry x="729.5" y="939" width="70" height="30" as="geometry" />
        </mxCell>
        <mxCell id="GMvX-iJyJQHZilnjty4t-21" value="PWConv2d" style="rounded=1;whiteSpace=wrap;html=1;fillColor=#d80073;fontColor=#ffffff;strokeColor=#A50040;" vertex="1" parent="1">
          <mxGeometry x="707" y="969" width="120" height="30" as="geometry" />
        </mxCell>
        <mxCell id="GMvX-iJyJQHZilnjty4t-22" value="BatchNorm" style="rounded=1;whiteSpace=wrap;html=1;fillColor=#647687;fontColor=#ffffff;strokeColor=#314354;" vertex="1" parent="1">
          <mxGeometry x="729.5" y="999" width="70" height="30" as="geometry" />
        </mxCell>
        <mxCell id="GMvX-iJyJQHZilnjty4t-23" value="ReLU" style="rounded=1;whiteSpace=wrap;html=1;fillColor=#a0522d;fontColor=#ffffff;strokeColor=#6D1F00;" vertex="1" parent="1">
          <mxGeometry x="729.5" y="1029" width="70" height="30" as="geometry" />
        </mxCell>
        <mxCell id="GMvX-iJyJQHZilnjty4t-27" value="PConv2d" style="rounded=1;whiteSpace=wrap;html=1;fillColor=#60a917;fontColor=#ffffff;strokeColor=#2D7600;" vertex="1" parent="1">
          <mxGeometry x="942.5" y="760" width="70" height="30" as="geometry" />
        </mxCell>
        <mxCell id="GMvX-iJyJQHZilnjty4t-28" value="PWConv2d" style="rounded=1;whiteSpace=wrap;html=1;fillColor=#d80073;fontColor=#ffffff;strokeColor=#A50040;" vertex="1" parent="1">
          <mxGeometry x="920" y="790" width="120" height="30" as="geometry" />
        </mxCell>
        <mxCell id="GMvX-iJyJQHZilnjty4t-29" value="BatchNorm" style="rounded=1;whiteSpace=wrap;html=1;fillColor=#647687;fontColor=#ffffff;strokeColor=#314354;" vertex="1" parent="1">
          <mxGeometry x="942.5" y="820" width="70" height="30" as="geometry" />
        </mxCell>
        <mxCell id="GMvX-iJyJQHZilnjty4t-30" value="ReLU" style="rounded=1;whiteSpace=wrap;html=1;fillColor=#a0522d;fontColor=#ffffff;strokeColor=#6D1F00;" vertex="1" parent="1">
          <mxGeometry x="942.5" y="850" width="70" height="30" as="geometry" />
        </mxCell>
        <mxCell id="GMvX-iJyJQHZilnjty4t-37" style="edgeStyle=orthogonalEdgeStyle;rounded=0;orthogonalLoop=1;jettySize=auto;html=1;exitX=0.5;exitY=1;exitDx=0;exitDy=0;entryX=0.5;entryY=0;entryDx=0;entryDy=0;" edge="1" parent="1" source="GMvX-iJyJQHZilnjty4t-31" target="GMvX-iJyJQHZilnjty4t-32">
          <mxGeometry relative="1" as="geometry" />
        </mxCell>
        <mxCell id="GMvX-iJyJQHZilnjty4t-31" value="PWConv2d" style="rounded=1;whiteSpace=wrap;html=1;fillColor=#d80073;fontColor=#ffffff;strokeColor=#A50040;" vertex="1" parent="1">
          <mxGeometry x="940" y="880" width="75" height="30" as="geometry" />
        </mxCell>
        <mxCell id="GMvX-iJyJQHZilnjty4t-32" value="PConv2d" style="rounded=1;whiteSpace=wrap;html=1;fillColor=#60a917;fontColor=#ffffff;strokeColor=#2D7600;" vertex="1" parent="1">
          <mxGeometry x="942.5" y="940" width="70" height="30" as="geometry" />
        </mxCell>
        <mxCell id="GMvX-iJyJQHZilnjty4t-33" value="PWConv2d" style="rounded=1;whiteSpace=wrap;html=1;fillColor=#d80073;fontColor=#ffffff;strokeColor=#A50040;" vertex="1" parent="1">
          <mxGeometry x="920" y="970" width="120" height="30" as="geometry" />
        </mxCell>
        <mxCell id="GMvX-iJyJQHZilnjty4t-34" value="BatchNorm" style="rounded=1;whiteSpace=wrap;html=1;fillColor=#647687;fontColor=#ffffff;strokeColor=#314354;" vertex="1" parent="1">
          <mxGeometry x="942.5" y="1000" width="70" height="30" as="geometry" />
        </mxCell>
        <mxCell id="GMvX-iJyJQHZilnjty4t-35" value="ReLU" style="rounded=1;whiteSpace=wrap;html=1;fillColor=#a0522d;fontColor=#ffffff;strokeColor=#6D1F00;" vertex="1" parent="1">
          <mxGeometry x="942.5" y="1030" width="70" height="30" as="geometry" />
        </mxCell>
        <mxCell id="GMvX-iJyJQHZilnjty4t-36" value="PWConv2d" style="rounded=1;whiteSpace=wrap;html=1;fillColor=#d80073;fontColor=#ffffff;strokeColor=#A50040;" vertex="1" parent="1">
          <mxGeometry x="940" y="1060" width="75" height="30" as="geometry" />
        </mxCell>
        <mxCell id="GMvX-iJyJQHZilnjty4t-38" value="" style="endArrow=classic;html=1;rounded=0;entryX=0.5;entryY=0;entryDx=0;entryDy=0;" edge="1" parent="1" target="GMvX-iJyJQHZilnjty4t-16">
          <mxGeometry width="50" height="50" relative="1" as="geometry">
            <mxPoint x="765" y="760" as="sourcePoint" />
            <mxPoint x="820" y="760" as="targetPoint" />
          </mxGeometry>
        </mxCell>
        <mxCell id="GMvX-iJyJQHZilnjty4t-39" value="" style="endArrow=classic;html=1;rounded=0;entryX=0.5;entryY=0;entryDx=0;entryDy=0;" edge="1" parent="1">
          <mxGeometry width="50" height="50" relative="1" as="geometry">
            <mxPoint x="977" y="730" as="sourcePoint" />
            <mxPoint x="977" y="760" as="targetPoint" />
          </mxGeometry>
        </mxCell>
        <mxCell id="GMvX-iJyJQHZilnjty4t-41" value="" style="endArrow=classic;html=1;rounded=0;exitX=0.5;exitY=1;exitDx=0;exitDy=0;" edge="1" parent="1" source="GMvX-iJyJQHZilnjty4t-23">
          <mxGeometry width="50" height="50" relative="1" as="geometry">
            <mxPoint x="770" y="980" as="sourcePoint" />
            <mxPoint x="765" y="1090" as="targetPoint" />
          </mxGeometry>
        </mxCell>
        <mxCell id="GMvX-iJyJQHZilnjty4t-42" value="" style="endArrow=classic;html=1;rounded=0;exitX=0.5;exitY=1;exitDx=0;exitDy=0;" edge="1" parent="1" source="GMvX-iJyJQHZilnjty4t-36">
          <mxGeometry width="50" height="50" relative="1" as="geometry">
            <mxPoint x="770" y="980" as="sourcePoint" />
            <mxPoint x="978" y="1120" as="targetPoint" />
          </mxGeometry>
        </mxCell>
        <mxCell id="GMvX-iJyJQHZilnjty4t-44" value="" style="endArrow=none;html=1;rounded=0;dashed=1;" edge="1" parent="1">
          <mxGeometry width="50" height="50" relative="1" as="geometry">
            <mxPoint x="765" y="1070" as="sourcePoint" />
            <mxPoint x="765" y="780" as="targetPoint" />
            <Array as="points">
              <mxPoint x="680" y="1070" />
              <mxPoint x="680" y="780" />
            </Array>
          </mxGeometry>
        </mxCell>
        <mxCell id="GMvX-iJyJQHZilnjty4t-45" value="" style="endArrow=none;html=1;rounded=0;dashed=1;" edge="1" parent="1">
          <mxGeometry width="50" height="50" relative="1" as="geometry">
            <mxPoint x="980" y="1100" as="sourcePoint" />
            <mxPoint x="978" y="750" as="targetPoint" />
            <Array as="points">
              <mxPoint x="880" y="1100" />
              <mxPoint x="880" y="920" />
              <mxPoint x="880" y="750" />
            </Array>
          </mxGeometry>
        </mxCell>
        <mxCell id="GMvX-iJyJQHZilnjty4t-46" value="&lt;b&gt;（a).&lt;font style=&quot;font-size: 13px;&quot;&gt;Bottleneck&lt;/font&gt;&lt;/b&gt;" style="text;html=1;align=center;verticalAlign=middle;resizable=0;points=[];autosize=1;strokeColor=none;fillColor=none;" vertex="1" parent="1">
          <mxGeometry x="530" y="1130" width="120" height="30" as="geometry" />
        </mxCell>
        <mxCell id="GMvX-iJyJQHZilnjty4t-47" value="&lt;b&gt;（b).PPW-&lt;font style=&quot;font-size: 13px;&quot;&gt;Bottleneck&lt;/font&gt;&lt;/b&gt;" style="text;html=1;align=center;verticalAlign=middle;resizable=0;points=[];autosize=1;strokeColor=none;fillColor=none;" vertex="1" parent="1">
          <mxGeometry x="689.5" y="1130" width="150" height="30" as="geometry" />
        </mxCell>
        <mxCell id="GMvX-iJyJQHZilnjty4t-48" value="&lt;b&gt;（c).Faster-&lt;font style=&quot;font-size: 13px;&quot;&gt;Bottleneck&lt;/font&gt;&lt;/b&gt;" style="text;html=1;align=center;verticalAlign=middle;resizable=0;points=[];autosize=1;strokeColor=none;fillColor=none;" vertex="1" parent="1">
          <mxGeometry x="894" y="1130" width="160" height="30" as="geometry" />
        </mxCell>
      </root>
    </mxGraphModel>
  </diagram>
</mxfile>
